<svg width="139" height="35" viewBox="0 0 139 35" fill="none" xmlns="http://www.w3.org/2000/svg">
<path d="M25.652 31.568C24.74 32.048 24.836 32.048 24.02 32C23.348 31.952 23.204 31.952 22.772 31.76C22.532 31.616 22.292 31.472 22.196 31.424C22.148 31.328 21.956 31.232 21.764 31.184C21.284 31.04 20.708 30.368 20.084 29.36C20.036 29.216 19.892 28.928 19.892 28.688C19.844 28.496 19.796 28.064 19.748 27.776C19.604 27.152 19.604 26.528 19.748 25.712C19.844 24.848 20.228 23.456 20.468 22.88C20.564 22.688 20.708 22.352 20.708 22.256C20.756 22.112 20.9 21.776 21.044 21.536C21.14 21.248 21.284 20.96 21.284 20.912C21.284 20.864 21.332 20.672 21.428 20.576C21.572 20.432 21.62 20.288 21.62 20.24C21.62 20.192 21.764 19.856 21.908 19.568C22.244 18.896 22.34 18.512 22.292 18.416C22.196 18.368 20.708 18.56 20.324 18.704C20.132 18.752 19.844 18.752 19.556 18.704C19.22 18.704 18.98 18.704 18.788 18.8C18.596 18.848 18.452 18.848 18.404 18.848C18.356 18.848 17.972 18.848 17.54 18.944C17.06 18.992 16.58 19.04 16.388 19.04C15.908 19.04 14.948 19.664 14.372 20.336C14.084 20.672 12.932 21.584 12.788 21.584C12.692 21.584 12.26 21.968 11.78 22.4C11.492 22.688 11.204 22.976 11.06 23.024C10.868 23.168 10.772 23.264 10.772 23.312C10.772 23.408 9.668 24.512 8.564 25.616C8.324 25.904 8.036 26.192 7.94 26.336C7.796 26.48 7.652 26.624 7.508 26.72C7.316 26.816 5.828 28.064 5.156 28.736C4.916 29.024 4.724 29.12 4.628 29.12C4.484 29.12 4.292 29.216 4.052 29.264C3.476 29.504 2.9 29.456 2.276 29.168C1.604 28.88 0.884 28.208 0.644 27.728C0.452 27.344 0.452 27.296 0.548 27.008C0.596 26.72 0.692 26.624 0.98 26.624C1.124 26.624 1.46 26.432 2.084 26.048C2.228 26 2.564 25.712 2.708 25.52C3.14 25.136 4.052 24.32 5.156 23.456C5.396 23.264 5.732 23.024 5.876 22.88C6.02 22.736 6.308 22.448 6.596 22.256C6.884 22.016 7.124 21.776 7.172 21.68C7.22 21.584 7.364 21.488 7.412 21.488C7.604 21.488 9.524 19.76 9.428 19.664C9.38 19.616 9.188 19.568 8.948 19.52C8.612 19.52 8.468 19.52 8.084 19.664C7.748 19.76 7.556 19.808 6.932 19.76C5.588 19.664 5.012 19.472 4.772 18.944C4.58 18.512 4.532 17.84 4.628 17.504C4.724 17.216 4.772 17.216 4.964 17.408C5.06 17.504 5.156 17.552 6.116 17.504C7.796 17.504 10.196 17.408 10.58 17.36C10.772 17.36 11.108 17.312 11.348 17.312C11.876 17.312 12.548 17.12 12.932 16.832C13.076 16.688 13.652 16.16 14.18 15.68C15.14 14.816 15.38 14.576 16.004 14.24C16.868 13.76 16.916 13.76 17.108 13.424C17.156 13.184 17.3 13.04 17.444 12.992C17.54 12.944 17.684 12.848 17.732 12.752C17.828 12.656 18.02 12.464 18.164 12.368C18.98 11.84 19.46 11.456 20.468 10.544C20.852 10.208 21.188 9.92 21.284 9.872C21.428 9.776 21.476 9.632 21.572 9.488C21.62 9.296 21.908 9.056 22.1 9.056C22.244 9.056 23.78 7.616 24.644 6.752C24.836 6.512 25.124 6.272 25.316 6.176C25.7 5.936 26.9 4.88 27.236 4.448C27.332 4.304 27.572 4.112 27.764 4.016C28.1 3.728 28.82 3.152 29.3 2.672C29.924 2.048 30.74 1.376 30.98 1.184C31.124 1.088 31.268 0.896 31.316 0.751999C31.364 0.559999 31.46 0.511999 31.652 0.464C32.036 0.367998 32.468 0.464 32.66 0.704C32.708 0.799998 32.948 0.943999 33.14 0.991999C33.332 1.088 33.572 1.232 33.668 1.28C33.716 1.376 33.86 1.424 33.908 1.424C34.1 1.424 34.58 1.904 34.676 2.24C34.868 2.576 35.156 3.008 35.252 3.008C35.3 3.008 35.54 3.2 35.732 3.44C36.164 3.872 36.308 4.256 36.308 4.928C36.308 5.216 36.26 5.36 35.972 5.744L35.684 6.32C35.684 6.416 35.588 6.56 35.444 6.656C35.348 6.8 35.252 7.04 35.156 7.136C35.108 7.28 34.964 7.472 34.868 7.568C34.724 7.712 34.58 7.904 34.484 8.048C34.436 8.192 34.292 8.432 34.148 8.576C33.908 8.864 33.428 9.536 33.428 9.632C33.428 9.68 33.38 9.824 33.284 9.92C33.188 10.064 33.044 10.304 32.996 10.496C32.9 10.64 32.756 10.928 32.612 11.072C32.516 11.264 32.372 11.456 32.324 11.552C32.276 11.648 32.18 11.792 32.084 11.936C31.94 12.08 31.844 12.272 31.844 12.32C31.844 12.368 31.748 12.56 31.604 12.752C31.46 12.896 31.316 13.232 31.268 13.424C31.172 13.664 31.076 13.856 31.028 13.952C30.548 14.432 29.828 15.872 29.972 15.968C30.068 15.968 30.116 16.016 30.116 16.016C30.26 16.016 30.932 16.496 31.22 16.832C31.556 17.264 31.652 17.504 31.748 17.984C31.796 18.272 31.796 18.368 31.7 18.416C31.556 18.512 31.22 18.512 30.836 18.368C30.548 18.272 30.404 18.272 30.26 18.32C30.02 18.368 29.78 18.368 29.252 18.272C28.916 18.224 28.628 18.416 28.58 18.8C28.532 18.944 28.484 19.136 28.388 19.232C28.34 19.328 28.196 19.52 28.1 19.712C28.052 19.904 27.956 20.096 27.908 20.096C27.86 20.096 27.764 20.384 27.668 20.72C27.524 21.056 27.428 21.392 27.38 21.44C27.284 21.536 27.236 21.68 27.236 21.728C27.236 21.776 27.188 21.92 27.044 22.016C26.948 22.16 26.852 22.352 26.852 22.496C26.804 22.64 26.756 22.88 26.66 23.024C26.612 23.168 26.516 23.36 26.516 23.408C26.516 23.504 26.468 23.648 26.372 23.744C26.324 23.888 26.228 24.032 26.228 24.08C26.228 24.128 26.132 24.368 26.036 24.608C25.892 24.8 25.796 25.088 25.796 25.184C25.796 25.28 25.748 25.424 25.7 25.472C25.652 25.568 25.604 25.712 25.604 25.76C25.604 25.904 25.508 26.192 25.076 27.344C25.028 27.44 25.028 27.68 24.98 27.92C24.98 28.448 25.076 28.448 25.892 27.968C26.228 27.776 26.66 27.536 26.756 27.488C26.9 27.44 27.188 27.2 27.428 27.008C27.668 26.768 27.956 26.576 28.1 26.48C28.244 26.432 28.436 26.288 28.532 26.192C28.676 26.048 28.82 25.952 28.964 25.904C29.06 25.904 29.252 25.808 29.396 25.712C29.492 25.568 29.732 25.424 29.924 25.28C30.596 24.848 31.076 24.512 31.124 24.368C31.124 24.272 31.364 24.08 31.556 23.936C32.084 23.552 32.948 22.784 33.236 22.448L33.284 22.4C33.428 22.112 33.572 21.824 33.572 21.728C33.572 21.68 33.62 21.536 33.668 21.488C33.716 21.44 33.86 21.2 33.956 20.96C34.004 20.768 34.148 20.48 34.196 20.336C34.292 20.192 34.388 20 34.388 19.856C34.388 19.808 34.58 19.376 34.772 19.04C34.964 18.704 35.156 18.32 35.204 18.224C35.3 17.888 35.876 16.928 36.788 15.632C36.932 15.392 37.22 14.912 37.412 14.528C37.604 14.192 37.844 13.76 37.988 13.568C38.132 13.376 38.276 13.136 38.372 12.992C38.42 12.896 38.564 12.608 38.708 12.416C38.9 12.08 39.428 11.168 40.052 9.92C40.916 8.336 41.636 6.992 41.732 6.848L41.876 6.704C41.876 6.656 41.972 6.464 42.068 6.32C42.212 6.128 42.5 5.84 42.644 5.6C42.788 5.36 43.124 4.784 43.46 4.352C43.748 3.872 44.036 3.392 44.084 3.296C44.18 3.152 44.324 2.912 44.468 2.72C44.612 2.576 44.756 2.336 44.804 2.24C44.9 2.096 45.044 1.808 45.188 1.568C45.332 1.088 45.38 1.088 45.236 0.847998C45.092 0.511999 45.188 0.415998 45.524 0.223997C45.908 0.079999 46.1 0.127998 46.484 0.415998C46.628 0.511999 46.964 0.704 47.156 0.799998C47.348 0.847998 47.54 0.991999 47.54 1.04C47.588 1.088 47.78 1.184 47.972 1.28C48.212 1.424 48.548 1.664 48.692 1.808C48.932 2 49.22 2.24 49.364 2.384C49.508 2.528 49.7 2.816 49.796 3.008C49.94 3.2 50.084 3.44 50.132 3.584C50.276 3.728 50.276 3.776 50.228 3.872C50.084 4.112 50.084 4.256 50.228 4.448C50.42 4.64 50.372 5.072 50.132 5.552C49.988 5.792 49.94 5.984 49.94 6.032C49.94 6.08 49.844 6.176 49.748 6.32C49.7 6.416 49.508 6.8 49.364 7.184C49.076 7.856 48.644 8.576 48.308 8.912C48.212 9.056 48.116 9.152 48.116 9.2C48.116 9.2 47.972 9.344 47.876 9.488C47.54 9.872 47.252 10.352 47.252 10.448C47.252 10.496 47.06 10.736 46.868 10.976C46.484 11.456 46.148 11.936 45.524 12.848C45.332 13.184 45.092 13.424 45.092 13.424C45.044 13.424 44.948 13.52 44.9 13.664C44.804 13.808 44.612 14.096 44.42 14.288C44.228 14.48 44.084 14.624 44.084 14.672C44.084 14.768 43.844 15.104 43.316 15.776C43.124 15.968 42.74 16.448 42.5 16.784C42.212 17.072 41.924 17.504 41.876 17.648C41.78 17.792 41.636 17.984 41.588 18.08C41.492 18.128 41.3 18.368 41.204 18.56C41.06 18.752 40.868 18.992 40.772 19.088C40.724 19.232 40.484 19.52 40.34 19.808C40.148 20.144 39.956 20.432 39.908 20.528C39.86 20.576 39.764 20.72 39.716 20.816C39.716 20.96 39.62 21.104 39.572 21.152C39.332 21.392 39.044 21.872 38.996 22.064C38.996 22.16 38.852 22.4 38.708 22.496C38.564 22.64 38.468 22.832 38.468 22.88C38.468 22.976 38.42 23.12 38.324 23.264C38.228 23.36 38.18 23.504 38.18 23.552C38.18 23.6 38.036 23.84 37.892 24.08L37.604 24.56C37.604 24.608 37.508 24.752 37.412 24.848C37.316 24.944 37.172 25.28 37.124 25.52C37.028 25.76 36.836 26.144 36.74 26.384C36.596 26.576 36.548 26.864 36.548 26.96C36.548 27.056 36.452 27.296 36.404 27.44C36.308 27.584 36.212 27.872 36.164 28.112C36.116 28.304 35.972 28.736 35.828 29.024C35.588 29.552 35.588 29.6 35.684 29.696C35.78 29.792 35.972 29.84 36.26 29.888C36.548 29.888 36.74 29.888 37.172 29.696C37.46 29.6 37.796 29.456 37.892 29.456C37.988 29.456 38.18 29.408 38.372 29.312C38.564 29.216 39.14 28.928 39.716 28.736C40.196 28.544 40.82 28.256 41.012 28.112C41.444 27.824 42.212 27.44 42.404 27.44C42.452 27.44 42.596 27.392 42.692 27.296C43.076 27.008 43.652 26.672 43.94 26.576C44.084 26.48 44.228 26.384 44.324 26.288C44.324 26.24 44.468 26.144 44.612 26.048C44.708 26 44.9 25.856 44.996 25.712C45.092 25.616 45.236 25.472 45.38 25.424C45.62 25.28 46.772 24.32 47.3 23.792C47.396 23.696 47.972 23.168 48.548 22.64C49.124 22.16 49.652 21.584 49.748 21.44C49.844 21.296 49.94 21.2 49.988 21.2C50.132 21.2 50.324 21.392 50.468 21.632C50.564 21.824 50.564 21.872 50.42 22.304C50.324 22.544 50.276 22.736 50.276 22.784C50.276 23.024 49.796 23.792 49.364 24.224C48.884 24.752 48.164 25.376 48.068 25.376C48.02 25.376 47.78 25.616 47.444 25.856C47.108 26.144 46.868 26.384 46.82 26.384C46.772 26.384 46.676 26.48 46.532 26.576C46.148 26.912 45.812 27.152 45.764 27.152C45.62 27.152 44.756 27.776 44.468 28.112C44.228 28.304 43.988 28.496 43.796 28.592C43.652 28.688 43.46 28.832 43.364 28.928C43.268 29.024 42.98 29.216 42.74 29.312C42.5 29.456 42.212 29.648 42.068 29.744C41.972 29.84 41.54 30.08 41.108 30.32C40.724 30.512 40.34 30.752 40.292 30.752C40.292 30.8 40.1 30.896 39.908 30.992C39.716 31.088 39.524 31.184 39.428 31.28C39.188 31.472 38.324 31.76 37.988 31.76C37.796 31.808 37.556 31.808 37.46 31.904C37.22 32.048 36.116 32.048 35.54 31.904C34.58 31.664 33.86 31.328 33.38 30.848C33.044 30.512 32.324 29.216 32.228 28.784C32.084 28.112 31.988 27.152 32.084 26.912C32.084 26.816 32.132 26.576 32.132 26.384C31.7 26.864 31.268 27.392 31.22 27.488C31.22 27.488 31.076 27.632 30.932 27.728C30.74 27.776 30.548 27.92 30.452 28.016C30.356 28.112 30.212 28.256 30.068 28.304C29.972 28.352 29.588 28.64 29.252 28.928C28.964 29.216 28.532 29.552 28.388 29.648C28.148 29.744 27.956 29.936 27.86 30.08C27.764 30.224 27.572 30.368 27.476 30.464C27.332 30.512 27.092 30.704 26.948 30.848C26.756 30.992 26.468 31.184 26.324 31.28C26.132 31.328 25.844 31.472 25.652 31.568ZM27.476 9.728C27.764 9.2 27.62 9.2 27.044 9.776C26.756 10.016 26.468 10.256 26.324 10.304C26.228 10.352 25.94 10.592 25.7 10.88C25.46 11.12 25.22 11.36 25.172 11.36C25.124 11.36 24.836 11.6 24.5 11.936C24.164 12.224 23.78 12.56 23.732 12.608C23.588 12.656 23.444 12.8 23.396 12.944C23.252 13.184 22.34 14 22.244 14C22.196 14 22.1 14.096 22.004 14.192C21.908 14.24 21.764 14.384 21.62 14.48C21.476 14.528 21.332 14.672 21.284 14.816C21.236 14.96 21.14 15.104 21.044 15.2C20.948 15.2 20.852 15.344 20.756 15.392C20.756 15.44 20.468 15.632 20.276 15.824C19.988 16.016 19.7 16.256 19.556 16.4C19.316 16.64 19.316 16.688 19.412 16.784H19.844C19.988 16.784 20.324 16.736 20.564 16.736C20.852 16.736 21.14 16.688 21.284 16.64C21.428 16.592 21.86 16.496 22.292 16.496C23.348 16.4 23.396 16.4 23.78 15.632C23.972 15.296 24.212 14.816 24.356 14.528C24.5 14.24 24.74 13.904 24.788 13.76C24.884 13.568 25.028 13.328 25.124 13.184C25.22 13.088 25.316 12.944 25.316 12.944C25.316 12.8 25.796 12.128 26.036 11.936C26.084 11.888 26.276 11.6 26.372 11.36C26.516 11.12 26.66 10.88 26.708 10.88C26.804 10.832 27.14 10.352 27.476 9.728ZM62.4091 1.232L62.5051 0.799998L62.8411 0.896C63.0331 0.943999 63.2731 1.088 63.4171 1.184C63.5611 1.328 63.7051 1.424 63.7531 1.424C63.8011 1.424 63.8491 1.424 63.8971 1.52C63.9931 1.568 64.0891 1.664 64.1851 1.664C64.3291 1.664 64.4731 1.76 64.5211 1.856C64.6171 1.952 64.9051 2.144 65.1931 2.288C66.0091 2.72 66.4411 3.152 66.7291 3.68C67.0171 4.256 67.0171 4.832 66.7771 5.024C66.7291 5.12 66.5851 5.36 66.4411 5.552C66.3451 5.744 66.1051 6.032 66.0091 6.128C65.8651 6.272 65.7211 6.416 65.7211 6.512C65.7211 6.848 65.2411 7.664 64.8091 8.144C64.7131 8.288 64.5691 8.48 64.5691 8.624C64.5211 8.768 64.3771 8.96 64.2331 9.104C63.9451 9.344 63.4651 9.968 63.0811 10.592C62.9371 10.88 62.7451 11.12 62.6491 11.168C62.3131 11.36 61.9771 11.84 61.6891 12.608C61.6411 12.752 61.5451 12.896 61.4491 12.944C61.3051 13.04 61.1611 13.232 61.0171 13.616C60.7771 14.096 60.4411 14.624 60.2971 14.768C60.2491 14.768 60.1531 14.912 60.0571 15.104C59.8651 15.488 59.6251 15.872 59.4331 16.016C59.3851 16.064 59.2411 16.256 59.1931 16.4C59.0971 16.544 58.9051 16.88 58.7611 17.072C58.4251 17.504 57.8971 18.56 57.8491 18.896C57.7531 19.232 57.9451 19.184 58.4731 18.704C58.7131 18.512 59.0011 18.272 59.1451 18.224C59.2411 18.128 59.4331 17.984 59.5771 17.936C59.6731 17.84 60.1051 17.552 60.4411 17.36C60.8731 17.072 61.1611 16.784 61.4491 16.496C61.6891 16.16 61.8811 15.968 62.1211 15.92C62.2651 15.824 62.4571 15.728 62.5531 15.632C62.6491 15.536 62.7451 15.44 62.7931 15.44C62.8411 15.44 62.9371 15.392 63.0331 15.296C63.6571 14.816 63.8011 14.72 63.9451 14.72C64.0411 14.72 64.1851 14.624 64.2811 14.528C64.4251 14.384 64.7611 14.192 65.0491 14.096C65.3371 13.952 65.7211 13.76 65.8171 13.712C65.9131 13.616 66.0571 13.568 66.2011 13.568C66.2971 13.568 66.5851 13.52 66.8251 13.424C67.2091 13.28 67.4011 13.232 68.5051 13.232C69.5131 13.232 69.7531 13.28 69.8971 13.376C70.0411 13.52 70.3291 13.664 70.9531 14C71.7211 14.384 72.7771 15.392 72.8251 15.824C72.8251 15.968 72.9211 16.208 72.9691 16.4C73.1611 16.832 73.1611 16.832 72.9691 17.264C72.8731 17.504 72.8251 17.696 72.8251 18.08C72.8251 18.368 72.7771 18.656 72.7291 18.704C72.6811 18.752 72.5371 19.04 72.4411 19.328C72.3451 19.664 72.2011 19.952 72.1051 20.096C72.0091 20.144 71.9131 20.528 71.8171 20.816C71.7691 21.104 71.6731 21.392 71.6251 21.392C71.5291 21.44 71.0491 22.544 70.6651 23.312C70.5691 23.552 70.3771 23.84 70.2331 23.936C70.1851 24.032 69.9451 24.32 69.8011 24.512C69.7051 24.752 69.4171 25.136 69.1771 25.424C68.7451 25.952 68.3611 26.48 67.6891 27.488C67.4491 27.872 67.2091 28.16 67.0651 28.208C66.9211 28.256 66.7771 28.448 66.6811 28.592C66.3931 29.12 65.8171 29.696 65.4811 29.792C65.2891 29.84 65.1451 29.936 65.0491 30.128C64.9531 30.272 64.7131 30.512 64.5691 30.656C64.2331 30.992 63.0331 31.664 62.7931 31.664C62.6971 31.664 62.6011 31.712 62.5051 31.808C62.4091 31.952 62.3131 31.952 61.5931 31.904C60.8251 31.856 60.0571 31.664 59.7691 31.424C59.6731 31.376 59.5291 31.28 59.4331 31.28C59.2891 31.28 58.8091 31.088 57.8971 30.608C57.7531 30.56 57.5611 30.416 57.4171 30.32C57.3691 30.224 57.1291 30.08 57.0331 30.032C56.7451 29.888 55.9291 29.024 55.9291 28.88C55.9291 28.784 55.9771 28.592 56.1211 28.352C56.2171 28.112 56.2651 27.92 56.2651 27.536C56.2651 26.96 56.3611 26.912 56.7931 27.056C57.1771 27.2 57.9931 27.296 58.1851 27.2C58.2811 27.152 58.8091 27.104 59.3851 27.056C60.2971 27.056 60.3931 27.008 60.9211 26.816C61.2091 26.672 61.5451 26.528 61.5931 26.48C61.6411 26.432 61.9291 26.288 62.1691 26.144C62.6971 25.856 63.1771 25.424 63.7531 24.752C63.9451 24.56 64.1851 24.224 64.3291 24.08C64.4731 23.888 64.6651 23.696 64.7611 23.552C64.9051 23.264 65.9131 21.968 66.3931 21.392C66.5851 21.104 66.7771 20.816 66.8731 20.72C67.0651 20.336 67.4491 19.664 67.9291 18.656C68.2171 18.128 68.5051 17.552 68.6491 17.456C68.8411 17.12 69.0331 16.496 69.1771 15.536C69.2251 15.056 69.1771 14.96 68.8891 14.96C68.3611 14.96 67.5451 15.2 67.2571 15.392C67.1131 15.488 66.9211 15.632 66.7771 15.632C66.4411 15.728 65.9131 16.064 65.8651 16.208C65.7691 16.256 65.6251 16.4 65.4331 16.448C65.1451 16.592 64.1851 17.312 63.5131 17.936C63.3211 18.128 63.0811 18.272 63.0331 18.272C62.9851 18.272 62.7931 18.416 62.6011 18.608C62.4091 18.8 62.0251 19.136 61.7851 19.328C61.5451 19.52 61.2571 19.808 61.1611 19.904C61.1131 20 60.9691 20.144 60.8731 20.24C60.4891 20.432 60.1051 20.768 60.0571 20.912C60.0091 21.008 59.8171 21.248 59.5771 21.44C58.5211 22.4 57.2731 23.696 57.0331 24.032C56.9851 24.176 56.8411 24.272 56.6971 24.32C56.5051 24.464 56.1211 24.848 55.1131 25.856C54.7771 26.192 54.2011 26.864 53.7691 27.344C53.3371 27.776 52.9051 28.256 52.8091 28.4C52.7611 28.496 52.5691 28.688 52.4731 28.784C52.1851 28.928 51.5131 29.648 51.3691 29.936C51.3211 30.032 51.2251 30.176 51.1291 30.224C51.0331 30.32 50.7451 30.608 50.5051 30.896C50.2651 31.184 49.8811 31.568 49.7371 31.712C49.1611 32.192 48.7771 32.096 47.7211 31.28C47.0011 30.752 46.4731 30.176 46.3291 29.744C46.1851 29.264 46.1851 29.168 46.4251 29.024C46.6171 28.88 47.0491 28.304 47.0491 28.16C47.0491 28.064 47.4331 27.344 47.5291 27.296C47.6731 27.2 48.0571 26.672 48.2011 26.336C48.2971 26.144 48.4891 25.76 48.7291 25.52C48.9211 25.232 49.1611 24.896 49.2091 24.752C49.4011 24.464 49.6411 24.128 49.8811 23.792C50.1211 23.456 50.7931 22.4 50.7931 22.352C50.7931 22.304 50.9371 22.064 51.1291 21.824C51.3211 21.584 51.4651 21.344 51.4651 21.296C51.4651 21.248 51.5611 21.056 51.7051 20.864C51.8491 20.672 52.0411 20.384 52.0891 20.192C52.1851 20 52.3291 19.76 52.3771 19.616C52.4731 19.52 52.6651 19.136 52.7611 18.848C52.9051 18.56 53.0491 18.32 53.0971 18.272C53.1451 18.224 53.2891 17.936 53.4811 17.696C54.0091 16.688 54.2971 16.208 54.5851 15.68C54.7771 15.392 55.0171 14.912 55.2091 14.672C55.3531 14.48 55.6411 14.048 55.7851 13.712C56.2171 12.944 56.3611 12.752 56.6971 12.224C56.9371 11.888 57.0331 11.6 57.1291 11.216C57.1771 10.88 57.3211 10.496 57.4651 10.256C57.6091 10.016 57.7051 9.824 57.7051 9.776C57.7051 9.728 58.3771 8.384 58.4251 8.336C58.4731 8.336 58.5211 8.24 58.5691 8.144C58.5691 8 58.6651 7.856 58.8091 7.712C58.8571 7.616 58.9531 7.472 58.9531 7.424C58.9531 7.376 59.1451 6.944 59.4331 6.464C59.6731 6.032 59.9131 5.552 59.9611 5.504C59.9611 5.408 60.1051 5.216 60.2011 5.024C60.4411 4.736 60.8731 4.016 60.8731 3.92C60.8731 3.872 61.0171 3.728 61.1611 3.536C61.3051 3.392 61.5451 3.056 61.6411 2.864C61.7371 2.624 61.9291 2.288 62.0251 2.048C62.1691 1.856 62.3131 1.472 62.4091 1.232ZM100.037 8.384C100.373 8.288 100.757 8.384 101.333 8.672C101.621 8.864 101.909 9.008 101.957 9.104C102.053 9.152 102.245 9.248 102.437 9.344C102.629 9.44 102.821 9.584 102.917 9.728C103.349 10.304 103.589 11.12 103.397 11.504C103.397 11.6 103.349 11.888 103.349 12.032C103.349 12.272 103.253 12.464 103.157 12.608C103.061 12.752 103.013 12.848 103.061 13.136C103.109 13.328 103.205 13.568 103.253 13.616C103.301 13.76 103.493 13.952 103.589 14.144C103.685 14.336 103.829 14.48 103.877 14.48C103.925 14.48 103.973 14.576 104.021 14.72C104.069 14.816 104.453 15.2 104.837 15.632C105.509 16.304 106.085 17.072 106.085 17.312C106.085 17.312 106.133 17.408 106.229 17.504C106.325 17.552 106.469 17.792 106.565 18.032C106.709 18.368 106.757 18.464 106.709 18.992C106.661 19.52 106.661 19.616 106.421 19.808C106.277 19.952 106.085 20.192 105.941 20.576C105.845 20.912 105.653 21.296 105.509 21.44C105.365 21.632 105.173 21.872 105.077 22.064C104.933 22.256 104.789 22.4 104.693 22.448C104.645 22.496 104.501 22.688 104.357 22.88C104.213 23.12 103.973 23.408 103.829 23.6C103.637 23.744 103.493 23.984 103.397 24.128C103.253 24.272 103.157 24.416 103.109 24.464C102.965 24.512 102.677 24.992 102.533 25.328C102.533 25.424 102.389 25.664 102.245 25.856C102.149 26 102.053 26.192 102.053 26.24C102.053 26.288 101.957 26.528 101.765 26.72C101.477 27.248 101.237 27.632 101.189 27.92C101.141 28.016 101.093 28.256 101.045 28.352C100.661 29.12 100.565 29.408 100.565 29.6C100.565 29.744 100.517 30.08 100.469 30.32C100.325 31.04 100.373 31.088 101.093 31.04C101.813 30.992 102.581 30.752 103.205 30.368C103.349 30.272 103.637 30.128 103.877 29.984C104.069 29.888 104.357 29.696 104.405 29.6C104.549 29.456 104.645 29.408 104.693 29.408C104.741 29.408 104.981 29.216 105.269 29.024C105.557 28.832 105.893 28.544 106.085 28.448C106.229 28.352 106.613 28.064 106.901 27.824C107.189 27.536 107.669 27.152 107.957 26.96C108.245 26.768 108.485 26.528 108.485 26.48C108.533 26.432 108.677 26.288 108.869 26.24C109.013 26.144 109.349 25.904 109.589 25.664C109.829 25.472 110.165 25.136 110.405 24.992C110.597 24.848 110.933 24.608 111.029 24.464C111.173 24.32 111.413 24.176 111.557 24.128C111.701 24.08 111.845 23.936 111.989 23.792C112.037 23.648 112.277 23.408 112.565 23.264C112.757 23.168 112.997 22.976 113.045 22.88C113.237 22.592 113.765 22.064 114.005 21.968C114.149 21.92 114.197 21.824 114.197 21.68C114.197 21.44 114.917 20.768 115.685 20.336C115.973 20.144 116.261 19.904 116.357 19.808C116.741 19.232 117.077 18.944 117.317 18.944C117.509 18.944 117.557 18.944 117.557 19.232C117.509 19.712 116.933 20.768 116.453 21.104C116.309 21.2 116.069 21.488 115.877 21.872C115.637 22.256 115.445 22.496 115.253 22.64C114.965 22.832 114.965 22.832 115.013 23.216C115.061 23.6 115.013 23.648 114.869 23.792C114.581 23.984 114.437 24.224 114.437 24.512C114.437 24.704 114.341 24.848 113.861 25.328C113.573 25.664 113.237 26 113.189 26.144C113.141 26.24 112.901 26.576 112.613 26.816C112.421 27.104 112.037 27.44 111.893 27.584C111.365 28.16 109.781 29.696 109.733 29.696C109.685 29.696 109.541 29.84 109.397 30.032C109.301 30.272 109.157 30.416 109.061 30.416C109.013 30.464 108.821 30.608 108.629 30.8C108.437 30.992 108.197 31.184 108.101 31.28C107.957 31.328 107.765 31.472 107.621 31.568C107.381 31.76 106.997 31.952 106.565 32.192C106.421 32.288 106.133 32.48 105.941 32.672C105.701 32.864 105.461 33.008 105.365 33.008C105.269 33.008 105.125 33.056 105.077 33.152C104.933 33.344 104.069 33.824 103.301 34.208C102.917 34.4 102.821 34.448 102.629 34.352C102.485 34.304 102.245 34.304 102.101 34.352C101.525 34.448 99.8454 33.872 99.3654 33.44C99.2214 33.296 98.9814 33.152 98.8854 33.056C98.7414 33.056 98.5974 32.912 98.5014 32.768C98.4534 32.624 98.3094 32.432 98.1654 32.336C97.8774 32.144 97.6374 31.808 97.3494 30.896C96.9654 29.888 96.9174 29.024 97.1574 28.256C97.2534 27.968 97.3014 27.728 97.3014 27.632C97.3014 27.392 97.4934 26.72 97.6374 26.432C97.6854 26.384 97.7814 26.144 97.8294 26C97.9254 25.904 97.9734 25.712 97.9734 25.664C97.9734 25.616 98.2614 24.944 98.6454 24.224C99.0294 23.408 99.4614 22.64 99.5094 22.448C99.7494 22.064 99.9894 21.632 100.229 21.344C100.277 21.248 100.469 20.96 100.613 20.816C100.709 20.624 100.949 20.288 101.141 20.096C101.285 19.952 101.477 19.712 101.525 19.616C101.573 19.52 101.813 19.184 102.101 18.944C103.205 17.744 103.637 16.88 103.205 16.592C103.109 16.496 102.821 16.256 102.533 15.968C102.245 15.728 102.005 15.488 101.957 15.536C101.909 15.536 101.813 15.632 101.765 15.776C101.477 16.208 101.093 16.736 100.805 16.976C100.661 17.072 100.565 17.216 100.565 17.264C100.565 17.312 100.469 17.456 100.421 17.504C100.085 17.936 99.7014 18.464 99.6054 18.656C99.4614 18.896 98.8374 19.664 98.1654 20.432C97.9254 20.672 97.6374 21.056 97.4454 21.248C97.2054 21.488 96.7734 21.92 96.4374 22.256C96.0534 22.592 95.5734 23.072 95.2854 23.36C95.0454 23.6 94.7094 23.84 94.6134 23.936C94.1334 24.176 93.1254 25.136 92.8854 25.52C92.7894 25.664 92.6454 25.76 92.5494 25.808C92.4054 25.808 92.2614 25.952 92.1654 26.096C91.8774 26.432 91.5894 26.72 91.2534 26.864C91.1094 26.96 90.9174 27.104 90.7734 27.248C90.6774 27.392 90.4854 27.536 90.4374 27.536C90.3414 27.536 90.1494 27.584 90.0534 27.68C89.9574 27.824 89.8134 27.872 89.6694 27.92C89.5734 27.968 89.2854 28.112 88.9974 28.304C88.7094 28.448 88.4214 28.592 88.4214 28.592C88.3734 28.592 88.2294 28.688 88.0854 28.832C87.8934 28.976 87.5574 29.168 87.2694 29.312C87.0294 29.408 86.7894 29.6 86.7414 29.648C86.6934 29.696 86.5494 29.744 86.4054 29.792C86.2614 29.84 85.9734 29.984 85.8294 30.08C85.6854 30.224 85.4934 30.368 85.3494 30.416C84.9654 30.56 84.4854 30.752 84.3414 30.896C84.2454 30.992 84.0534 31.088 83.9094 31.136C83.7174 31.184 83.5254 31.28 83.4774 31.328C83.0454 31.568 81.9894 31.856 80.9334 31.904C80.4534 31.952 79.9254 32 79.7334 32.048C79.4934 32.096 79.2054 32.192 79.0134 32.192C78.7734 32.288 78.5814 32.288 78.3414 32.192C78.1014 32.144 77.8134 32.144 77.3814 32.192C76.7574 32.288 76.7574 32.288 76.2774 32.048C75.9894 31.904 75.6534 31.76 75.5574 31.616C75.4134 31.52 75.1734 31.376 75.0774 31.328C74.9814 31.28 74.7414 31.04 74.5974 30.896C74.2614 30.512 74.2134 30.416 73.9734 30.176C73.7814 30.032 73.4454 29.408 73.3014 29.024C72.8214 27.872 72.6294 27.104 72.5334 26.144C72.4374 25.328 72.7254 23.408 73.0134 22.736C73.1094 22.64 73.2054 22.208 73.3014 21.776C73.5414 21.104 73.7814 20.384 74.0214 20.048C74.0214 19.952 74.2134 19.616 74.4054 19.232C74.5974 18.8 74.8854 18.368 74.9814 18.224C75.1254 18.08 75.2214 17.936 75.2214 17.888C75.2214 17.792 75.4134 17.504 75.6534 17.216C75.8934 16.88 76.2294 16.496 76.3254 16.304C76.4694 16.064 76.8054 15.68 77.0454 15.392C77.3334 15.104 77.7174 14.72 77.8614 14.576C78.0054 14.384 78.1974 14.192 78.3414 14.096C78.4854 13.952 78.5814 13.904 79.1574 13.472C80.0214 12.896 80.2134 12.752 80.3574 12.608C80.4534 12.56 80.5494 12.464 80.5974 12.464C80.6454 12.464 80.8854 12.416 81.0774 12.32C81.5094 12.176 82.5174 12.08 83.0934 12.176C83.4774 12.272 83.6214 12.32 84.0534 12.56C84.1014 12.56 84.2934 12.656 84.4374 12.752C85.2534 13.136 85.7814 13.424 85.8294 13.472C85.8294 13.52 86.1174 13.616 86.4054 13.712C86.6934 13.856 86.9814 14 87.0774 14.096C87.1734 14.192 87.2694 14.288 87.3654 14.288C87.5094 14.288 88.1334 15.056 88.2294 15.296C88.2294 15.44 88.2774 15.584 88.3734 15.728C88.4694 15.776 88.5174 15.92 88.5174 16.016C88.5174 16.016 88.5654 16.208 88.6614 16.352C88.7574 16.496 88.8054 16.736 88.8054 16.832C88.8054 16.928 88.8534 17.12 88.9494 17.264C89.0934 17.696 88.9494 18.464 88.5654 19.136C88.4214 19.28 88.2774 19.616 88.1334 19.904C88.0854 20.096 87.9414 20.336 87.8934 20.336C87.8454 20.336 87.6534 20.528 87.4134 20.72C87.1734 20.96 86.8854 21.152 86.7894 21.2C86.6454 21.248 86.3574 21.488 86.1654 21.68C85.6854 22.064 85.4934 22.16 85.1094 22.208C84.9174 22.256 84.7734 22.4 84.4854 22.64C84.3414 22.832 84.1014 22.976 84.0534 22.976C84.0534 22.976 83.9094 23.072 83.7654 23.12C83.6694 23.216 83.4294 23.312 83.2374 23.36C83.0454 23.408 82.6134 23.552 82.3254 23.792C81.9414 23.984 81.6534 24.128 81.5574 24.128C81.4614 24.128 81.3174 24.224 81.1734 24.272C81.0294 24.368 80.7414 24.464 80.5494 24.512C80.3094 24.56 79.9254 24.704 79.6374 24.848C79.3974 24.992 79.1574 25.088 79.1094 25.088C79.0614 25.088 78.8694 25.184 78.6294 25.28C78.4374 25.376 78.1014 25.52 77.8614 25.568C77.1894 25.712 76.9974 25.856 76.8534 26.288C76.7574 26.48 76.6134 26.72 76.5654 26.768C76.5174 26.864 76.4694 26.96 76.5654 27.152C76.5654 27.344 76.5654 27.584 76.5174 27.68C76.3254 28.352 76.2774 28.688 76.2774 29.072C76.2774 29.552 76.4214 29.696 76.7574 29.888C76.9974 30.032 78.1494 30.032 78.4854 29.888C78.6294 29.84 78.8694 29.744 79.0614 29.744C79.2534 29.744 79.4934 29.696 79.6374 29.648C79.7334 29.6 79.9254 29.552 80.0694 29.552C80.1654 29.552 80.3574 29.504 80.4534 29.456C80.5974 29.36 80.9334 29.264 81.5574 29.12C81.6534 29.12 81.8934 29.024 81.9894 28.976C82.0854 28.928 82.2774 28.832 82.4694 28.784C83.2374 28.544 84.3894 28.112 84.4854 28.016C84.4854 27.968 84.6294 27.968 84.6774 27.968C84.7734 27.968 84.9654 27.872 85.1094 27.728C85.2534 27.584 85.4934 27.44 85.6374 27.44C85.7334 27.392 86.1654 27.104 86.5494 26.816C86.9814 26.576 87.4134 26.288 87.5574 26.192C87.6534 26.144 87.7974 26 87.8454 25.952C87.8454 25.904 87.9894 25.808 88.1334 25.76C88.2294 25.712 88.5174 25.52 88.7094 25.376C88.9494 25.184 89.2854 24.944 89.5254 24.752C89.9094 24.464 89.9574 24.416 90.4374 23.936C90.5334 23.792 90.7734 23.648 90.9654 23.552C91.2054 23.408 91.4454 23.216 91.8774 22.928C91.9734 22.832 92.1654 22.64 92.3094 22.4C92.5014 22.112 92.7414 21.92 92.8374 21.824C92.8854 21.776 93.0774 21.584 93.1734 21.44C93.4614 21.104 93.8934 20.624 94.5174 20.096C94.7574 19.808 94.9974 19.568 95.0454 19.472C95.0454 19.376 95.1894 19.232 95.2854 19.184C95.4294 19.088 95.6214 18.848 95.7174 18.656C95.8614 18.464 96.1014 18.08 96.3414 17.792C96.8694 17.12 97.0614 16.784 97.3974 16.256C97.5414 16.016 97.7814 15.728 97.9254 15.632C98.0694 15.488 98.2134 15.2 98.3574 14.912C98.4534 14.624 98.5974 14.432 98.5974 14.384C98.6934 14.336 99.7494 12.224 99.8454 11.888C99.9414 11.552 99.8934 11.12 99.7494 10.832C99.6534 10.736 99.6054 10.4 99.5094 10.112C99.4614 9.872 99.3654 9.536 99.3174 9.44C99.2214 9.296 99.2214 8.96 99.3174 8.768C99.3654 8.672 99.7014 8.432 100.037 8.384ZM86.2134 17.168C86.2614 16.88 86.2134 16.88 86.0214 16.88C85.9254 16.88 85.6854 16.928 85.4934 17.072C85.2054 17.216 84.8214 17.408 84.1494 17.648C83.8614 17.744 83.4774 18.08 83.3814 18.32C83.3814 18.368 83.1414 18.56 82.9014 18.704C82.6614 18.848 82.3734 19.088 82.2774 19.28C82.1814 19.472 81.8934 19.712 81.7494 19.808C81.3654 20.096 81.2694 20.192 80.4054 21.056C80.0214 21.392 79.5894 21.776 79.4934 21.92C79.0614 22.208 79.2054 22.256 79.9254 22.064C80.0694 21.968 80.2614 21.92 80.3094 21.872C80.3574 21.824 80.6934 21.632 81.0294 21.488C82.1814 20.864 82.7094 20.528 83.0934 20.24C83.2854 20.048 83.5254 19.904 83.6214 19.808C83.7174 19.76 83.8614 19.664 83.9574 19.568C84.0054 19.472 84.2454 19.28 84.3894 19.184C84.8214 18.896 85.8294 17.936 86.0214 17.648C86.0694 17.552 86.1654 17.36 86.2134 17.168ZM123.132 32.288C122.7 32.48 121.98 32.528 121.212 32.432C120.972 32.432 120.396 32.384 119.916 32.336C119.052 32.24 118.668 32.096 118.092 31.664C117.948 31.568 117.756 31.52 117.564 31.424C117.372 31.376 117.18 31.232 117.036 31.088C116.94 30.992 116.748 30.848 116.604 30.848C116.508 30.848 116.364 30.704 116.268 30.608C116.172 30.512 115.98 30.224 115.836 30.08C115.692 29.888 115.5 29.648 115.5 29.552C115.452 29.504 115.356 29.36 115.308 29.36C115.212 29.264 115.116 29.12 115.02 28.928C114.972 28.784 114.876 28.544 114.828 28.496C114.732 28.304 114.588 27.968 114.396 27.488C114.252 27.104 114.204 26.912 114.252 25.952C114.252 24.656 114.348 23.888 114.732 22.784C114.78 22.544 114.876 22.208 114.876 22.064C114.876 21.872 114.876 21.728 115.02 21.584C115.116 21.488 115.212 21.296 115.212 21.2C115.212 21.056 115.74 19.904 116.076 19.424C116.172 19.28 116.316 18.992 116.364 18.848C116.364 18.704 116.508 18.464 116.604 18.368C116.7 18.224 116.796 18.08 116.796 18.032L117.468 16.736C117.372 16.976 117.564 16.736 117.564 16.4C117.516 16.304 117.42 16.256 117.324 16.256C117.18 16.256 116.94 16.208 116.7 16.112C116.364 16.016 116.172 15.968 115.788 16.016L115.26 16.064L114.924 15.68C114.732 15.488 114.492 15.2 114.444 15.056C114.348 14.912 114.3 14.72 114.204 14.672C114.012 14.432 113.916 13.808 113.916 13.088C113.964 12.272 114.06 12.128 114.444 12.368C114.588 12.416 114.684 12.416 114.828 12.368C115.02 12.32 115.26 12.32 116.028 12.416C116.604 12.512 117.516 12.56 118.092 12.608C118.668 12.608 119.196 12.656 119.244 12.656C119.34 12.704 119.628 12.704 119.868 12.704C119.964 12.704 120.06 12.704 120.156 12.656L121.356 10.736L121.74 10.112C121.98 9.728 122.268 9.344 122.412 9.2C122.508 9.104 122.7 8.816 122.844 8.576C122.94 8.384 123.18 8 123.42 7.712C123.612 7.424 123.468 7.664 123.516 7.472C123.612 7.28 123.756 7.088 123.804 7.04C123.9 6.992 125.1 5.408 125.1 5.312C125.1 5.264 125.244 5.12 125.388 4.928L125.676 4.544C125.676 4.448 125.772 4.352 125.868 4.304C125.964 4.208 126.108 4.112 126.156 4.112C126.444 4.112 127.836 4.688 128.268 4.928C128.508 5.072 128.844 5.264 128.94 5.312C129.084 5.36 129.276 5.552 129.42 5.696C129.804 6.08 129.516 5.84 130.188 6.368C130.716 6.848 131.004 7.424 131.004 7.952C131.004 8.336 130.668 9.056 130.38 9.296C130.236 9.392 129.996 9.68 129.9 9.92C129.756 10.208 129.564 10.496 129.324 10.688L127.74 12.608C127.644 12.704 127.788 12.752 128.22 12.704C128.46 12.704 128.844 12.704 129.036 12.752C129.324 12.8 129.42 12.8 129.612 12.704C129.708 12.656 129.948 12.56 130.188 12.56C131.196 12.56 131.34 12.416 132.156 12.512C132.636 12.56 132.636 12.224 132.876 12.608C132.972 12.704 133.164 12.8 133.26 12.848C133.404 13.088 133.596 13.664 133.74 14.288C133.884 14.912 133.884 14.864 133.644 15.008C133.452 15.152 133.356 15.248 133.308 15.44C133.212 15.68 133.212 15.728 132.78 15.872C132.348 16.016 132.156 16.016 128.892 15.92C126.156 15.776 125.724 15.824 125.148 15.968C125.052 15.968 124.956 16.016 124.86 16.016L124.524 16.448C123.756 17.168 123.564 17.408 123.468 17.648L123.276 17.888L122.556 18.656C122.508 18.8 122.316 18.992 122.22 19.04C122.028 19.184 121.356 20.192 121.164 20.624C121.116 20.768 121.02 20.912 120.972 20.912C120.924 20.912 120.828 21.056 120.78 21.2C120.732 21.344 120.636 21.488 120.492 21.632C120.396 21.728 120.06 22.16 119.772 22.64C119.484 23.12 119.1 23.648 118.956 23.792C118.812 23.936 118.764 24.08 118.764 24.176C118.764 24.224 118.668 24.32 118.62 24.416C117.948 25.904 117.564 26.672 117.564 27.968C117.564 28.016 117.804 28.832 117.948 29.072C118.044 29.264 118.236 29.504 118.38 29.552C119.004 30.08 119.196 30.224 119.676 30.368C119.772 30.416 119.964 30.464 120.06 30.464C120.684 30.512 121.5 30.56 122.7 30.176C123.132 29.984 123.564 29.84 123.66 29.84C123.708 29.84 123.852 29.792 124.236 29.6C124.332 29.552 124.668 29.408 125.004 29.216C125.292 29.024 125.724 28.832 125.82 28.688C125.964 28.592 126.108 28.496 126.156 28.496C126.252 28.496 126.444 28.4 126.588 28.304C126.828 28.208 127.02 28.112 127.068 28.112C127.116 28.112 127.308 27.968 127.548 27.824C127.74 27.632 128.124 27.392 128.412 27.248C128.652 27.056 129.036 26.768 129.324 26.576C130.284 25.904 130.668 25.616 130.86 25.52C131.004 25.472 131.34 25.232 131.628 24.992C132.252 24.416 133.596 23.168 133.596 23.072C133.596 23.072 133.74 22.832 133.932 22.592C134.172 22.352 134.364 22.112 134.46 22.064C134.508 21.968 134.604 21.872 134.652 21.824C134.796 21.68 135.468 21.152 135.612 20.912C135.9 20.48 136.428 20.096 136.956 19.424L137.724 18.56C137.916 18.224 138.06 18.176 138.108 18.416C138.156 18.56 138.204 18.752 138.3 18.992C138.492 19.472 138.396 19.952 138.204 20.528C138.06 20.768 137.964 21.056 137.964 21.152C137.964 21.2 137.916 21.248 137.916 21.296C137.82 21.296 137.724 21.44 137.628 21.632C137.532 21.776 137.388 21.968 137.292 22.016C137.244 22.064 137.1 22.208 137.052 22.352C137.004 22.448 136.764 22.736 136.524 23.024C136.092 23.552 135.468 24.224 135.324 24.368C135.036 24.656 134.124 25.616 133.164 26.624C133.02 26.768 132.78 26.912 132.588 27.008C132.444 27.104 132.252 27.2 132.204 27.248C132.204 27.344 132.156 27.392 132.06 27.392C131.964 27.44 131.82 27.584 131.724 27.776C131.58 27.92 131.34 28.112 131.1 28.256C130.908 28.352 130.62 28.592 130.476 28.736C130.38 28.88 130.092 29.12 129.852 29.264C129.612 29.408 129.372 29.6 129.276 29.696C129.18 29.744 128.844 29.984 128.412 30.176C128.028 30.368 127.644 30.608 127.548 30.704C127.452 30.752 127.212 30.896 127.02 30.944C126.78 31.04 126.396 31.232 126.108 31.376C125.868 31.52 125.532 31.664 125.388 31.664C125.244 31.712 125.004 31.808 124.956 31.856C124.716 32 124.236 32.144 123.852 32.144C123.66 32.144 123.372 32.24 123.132 32.288ZM128.412 11.552C128.364 11.6 128.364 11.648 128.316 11.696L128.988 10.928C128.796 11.12 128.556 11.408 128.412 11.552Z" fill="#20C9BC"/>
</svg>
